<svg width="45" height="78" viewBox="0 0 45 78" fill="none" xmlns="http://www.w3.org/2000/svg">
<g id="Group 1000006144">
<path id="Vector" d="M42.8379 62.4207H2.80933V66.9146H42.8379V62.4207Z" fill="white"/>
<g id="Group 1000006143">
<path id="Vector_2" d="M45.0001 67.8133V10.1998C45.0001 4.55955 40.428 0.000488281 34.8008 0.000488281H11.1718C5.54466 0.000488281 0.985596 4.55955 0.985596 10.1998V67.8002C0.985596 73.4404 5.54466 77.9995 11.1718 77.9995H34.8008C40.428 77.9995 45.0001 73.4404 45.0001 67.8002V67.8133ZM11.1718 73.5447C8.01958 73.5447 5.44045 70.9786 5.44045 67.8002V10.1998C5.44045 7.03447 8.00655 4.45534 11.1718 4.45534H34.8008C37.9661 4.45534 40.5322 7.02144 40.5322 10.1998V67.8002C40.5322 70.9655 37.9791 73.5447 34.8008 73.5447H11.1718Z" fill="white"/>
<path id="Vector_3" d="M28.4443 10.929H17.5417C16.9815 10.929 16.5256 10.4731 16.5256 9.91299C16.5256 9.35288 16.9815 8.89697 17.5417 8.89697H28.4443C29.0044 8.89697 29.4603 9.35288 29.4603 9.91299C29.4603 10.4731 29.0044 10.929 28.4443 10.929Z" fill="white"/>
</g>
</g>
</svg>
