<svg width="78" height="78" viewBox="0 0 78 78" fill="none" xmlns="http://www.w3.org/2000/svg">
<path id="Vector" d="M73.2064 77.6329H4.76687C2.13365 77.6329 0.000244141 75.4873 0.000244141 72.8663V35.0868C0.000244141 33.7092 0.597597 32.4048 1.63382 31.4905L35.8536 1.53751C37.6456 -0.0229203 40.352 -0.0229203 42.1319 1.53751L76.3516 31.4783C77.3879 32.3804 77.9852 33.697 77.9852 35.0746V72.8541C77.9852 75.4873 75.8396 77.6207 73.2186 77.6207L73.2064 77.6329ZM38.5721 4.65837L4.35238 34.5991C4.21828 34.7211 4.13295 34.8917 4.13295 35.0746V72.8541C4.13295 73.2076 4.41334 73.488 4.76687 73.488H73.2064C73.5599 73.488 73.8403 73.2076 73.8403 72.8541V35.0746C73.8403 34.8917 73.755 34.7211 73.6209 34.5991L39.4133 4.65837C39.1695 4.45113 38.816 4.45113 38.5721 4.65837Z" fill="white"/>
</svg>
